<?xml version="1.0" encoding="UTF-8"?>
<!DOCTYPE svg PUBLIC "-//W3C//DTD SVG 1.1//EN" "http://www.w3.org/Graphics/SVG/1.1/DTD/svg11.dtd">
<!-- Creator: CorelDRAW 2019 (64 Bit) -->
<svg xmlns="http://www.w3.org/2000/svg" xml:space="preserve" width="70.2054mm" height="72.99mm" version="1.1" style="shape-rendering:geometricPrecision; text-rendering:geometricPrecision; image-rendering:optimizeQuality; fill-rule:evenodd; clip-rule:evenodd"
viewBox="0 0 417.67 434.24"
 xmlns:xlink="http://www.w3.org/1999/xlink">
 <defs>
  <style type="text/css">
   <![CDATA[
    .str0 {stroke:#FEFEFE;stroke-width:1.19;stroke-miterlimit:22.9256}
    .str1 {stroke:#FDB956;stroke-width:1.19;stroke-miterlimit:22.9256}
    .fil0 {fill:black}
    .fil2 {fill:#B9B9B9}
    .fil4 {fill:#F59C1B}
    .fil5 {fill:#F7A536}
    .fil3 {fill:#FDB956}
    .fil1 {fill:#FDFDFD}
    .fil7 {fill:#FEFEFE;fill-rule:nonzero}
    .fil6 {fill:#F15F36;fill-rule:nonzero}
    .fil8 {fill:#E04D38;fill-rule:nonzero}
   ]]>
  </style>
 </defs>
 <g id="Camada_x0020_1">
  <metadata id="CorelCorpID_0Corel-Layer"/>
  <g id="_2498413272624">
   <path class="fil0" d="M19.95 192.89c-3.07,0.95 -6.37,0.62 -9.33,-0.99 -3.92,-2.14 -6.13,-5.93 -5.99,-10.27 0.78,-24.73 6.46,-50.99 15.7,-74.01 8.56,-21.34 19.45,-38.27 34.91,-55.41 49.11,-54.48 143.73,-64.52 210.59,-38.04 68.64,27.18 102.76,99.24 105.64,167.39 0.19,4.54 -2.21,8.52 -6.39,10.6 -2.89,1.44 -6.05,1.68 -8.95,0.78 1.23,7.66 2.73,15.25 4.31,22.41 1.69,7.63 3.48,16.39 6.8,23.56 2.69,5.81 5.45,11.26 7.9,17.23 1.8,4.39 0.74,9.13 -2.79,12.41 -3.52,3.28 -8.48,4.13 -12.96,2.23 -1.03,-0.44 -2.16,-1.06 -3.36,-1.83 -1,8.84 -3.29,18.46 -5.66,26.68 -3.51,12.19 -10.42,33.27 -24.29,37.61 -3.2,1 -6.33,0.72 -9.28,-0.82 -1.03,-0.54 -1.94,-1.18 -2.72,-1.92 -8.11,16.94 -22.05,38.93 -36.91,46.51 -3.63,1.85 -7.64,1.82 -11.24,-0.1 -2.13,-1.14 -3.76,-2.74 -4.8,-4.69 -9.53,16.97 -22.7,31.51 -39.37,34.19 -3.69,0.59 -7.12,-0.38 -9.88,-2.8 -0.2,-0.17 -0.39,-0.35 -0.57,-0.53 -1.46,3.95 -3.06,7.85 -4.81,11.69 -0.79,1.73 -1.61,3.44 -2.47,5.14 -0.96,1.9 -1.93,3.97 -3.11,5.74 -0.24,0.36 -0.46,0.66 -0.74,0.99l-2.27 2.71c-0.4,0.48 -0.83,0.92 -1.29,1.33 -0.18,0.18 -0.37,0.36 -0.57,0.53 -4.47,3.97 -11.26,4.04 -15.82,0.17 -1.4,-1.19 -2.24,-2.02 -3.4,-3.46 -4.25,-5.24 -8.58,-15.4 -11.99,-24.79 -0.13,0.13 -0.27,0.26 -0.41,0.39 -2.77,2.5 -6.25,3.52 -9.99,2.94 -17.96,-2.83 -31.1,-19.81 -39.44,-34.55 -1.05,2.13 -2.78,3.86 -5.08,5.05 -3.51,1.82 -7.38,1.86 -10.94,0.12 -11.02,-5.4 -24.36,-23.63 -30.51,-34.12 -2.54,-4.34 -4.8,-8.72 -6.83,-13.21 -0.4,0.45 -0.84,0.9 -1.3,1.33 -2.62,2.44 -5.9,3.53 -9.52,3.14 -3.62,-0.38 -6.58,-2.13 -8.58,-5.06 -15.61,-22.86 -20.82,-39.52 -21.78,-60.45 -1.53,0.99 -2.98,1.77 -4.3,2.27 -4.53,1.7 -9.4,0.68 -12.78,-2.69 -3.38,-3.37 -4.29,-8.1 -2.38,-12.41 2.98,-6.73 6.68,-12.68 9.06,-19.71 3.53,-10.44 6.03,-22.76 8.13,-33.56 0.63,-3.22 1.23,-6.46 1.78,-9.7z"/>
   <g>
    <path class="fil0" d="M16.45 181.98c2.13,-1.32 0.67,-0.2 2.34,-1.82 1.61,-1.57 0.95,-1.05 2.27,-2.67 3.85,-4.72 8.75,-8.13 12.96,-11.48 2.22,11.48 -7.61,58.51 -12.74,73.68 -3.01,8.9 -6.25,13.48 -9.42,20.65 5.43,-2.04 17.85,-15.4 21.02,-20.97 -2.07,35.21 -1.65,52.95 19.23,83.51 4.52,-4.22 3.87,-14.62 7.88,-21.72 1.78,-3.14 1.05,-1.69 1.97,-2.47 5.21,9.96 6.27,20.69 16.79,38.66 5.41,9.24 17.64,25.68 25.56,29.56 0.82,-6.7 0.97,-14.62 1.29,-21.41 0.26,-5.45 0.41,-15.65 4.43,-19.93 2.33,17.19 21.49,65.73 46.29,69.63 -1.32,-13.01 -3.29,-42.75 4.3,-51.84 4.11,10.4 6.99,29.92 10.78,42.3 2.21,7.22 9.45,28.74 14.72,35.23 1.12,1.38 0.8,1 1.9,1.93 0.23,-0.2 0.57,-0.83 0.66,-0.64l2.27 -2.71c0.61,-0.91 1.71,-3.13 2.42,-4.56 14.4,-28.55 18.32,-63.12 22,-70.82 7.83,7.68 5,42.7 4.42,51.06 23.45,-3.77 40.8,-44.22 46.19,-68.68 5.81,6.46 5.01,32.32 5.64,40.44 13.58,-6.92 28.38,-32.59 34.85,-48.25 2.47,-5.98 4.68,-14.6 7.62,-19.99 0.74,0.61 0.64,0.28 1.59,1.77 0.64,1 0.95,1.71 1.47,3.12l5.27 18.82c11.68,-3.65 21.24,-43.85 22.19,-58.43 0.66,-10.12 -1.15,-15.86 -1.42,-24.52 3.19,5.4 15.57,18.61 20.94,20.88 -8.2,-19.98 -9.08,-14.64 -15.27,-42.61 -3.32,-15.01 -6.83,-35.48 -7.41,-51.56 7.2,2.76 11.54,10.04 15.82,14.01 0.22,0.21 0.53,0.45 0.74,0.63l1.63 1.22c-2.74,-64.8 -34.93,-132.21 -98.32,-157.31 -65.4,-25.9 -153.4,-13.6 -197.18,34.98 -13.36,14.82 -23.88,29.81 -32.8,52.04 -8.16,20.34 -14.14,45.76 -14.91,70.24z"/>
    <path class="fil1 str0" d="M100.41 45.36l9.01 -0.93c-5.35,6.51 -28.07,16.39 -29.63,22.24 -8.29,9.81 -14.8,17.11 -21.87,28.31 -4.16,6.59 -13.43,24.99 -13.29,33.15 7.48,-6.68 13.13,-13.3 24.32,-18.05 -3.93,28.59 -20.55,62.88 -16.41,103.69 3.83,-2.01 6.71,-4.44 10.93,-6.76 4.4,-2.41 7.24,-3.19 11.57,-5.15l25.86 -6.41c-10.25,8.49 -16.47,14.51 -24.87,25.94 -5.94,8.08 -14.9,24.08 -17.08,34.41 3.53,-5.87 10.78,-12.28 15.99,-15.69 1.37,15.58 0.59,24.86 5.71,39.14 2.55,7.12 10.2,26.81 14.59,30.62 4.02,-12.32 17.74,-48.45 31.48,-56.38 -1.95,29.3 -2.69,59.17 16.09,76.43l4.75 -7.38c15.73,-34.37 25.17,-71.51 1.44,-105.71 -2.72,-3.92 -7.94,-9.37 -16.37,-7.36 -7.67,1.83 -7.96,8.49 -11.23,14.08 -1.55,-3.49 -1.51,-12.29 -0.14,-15.65 0.9,-2.22 -0.08,-0.82 1.52,-2.53 2.73,-8.97 11.13,-14.46 23.79,-12.31 -3.09,-6.68 -13.18,-14.64 -24.36,-13.42 -27.55,2.05 -33.07,-19.22 -39.45,-33.16 -5.77,-12.63 -8.12,-4.35 -12.79,-9.91l2.67 -3.52c2.6,-6.46 4.89,-9.8 12.65,-11.61 20.67,-4.84 34.66,15.73 48.16,20.81 7.66,2.89 14.02,2.24 20.64,-1.49 9.04,-5.1 18.28,-14.8 24.02,-22.75 2.31,-3.2 7.5,-11.07 9.9,-13.24 3.78,3.41 8.32,13.24 22.22,26.59 31.51,30.26 39.83,-1.36 65.14,-9.03 15.36,-4.65 28.19,1.47 28.74,15.73l-1.28 -0.14c-8.08,1.86 -8.08,5.26 -10.92,11.89 -2.01,4.69 -4.21,9.97 -6.74,14.14 -5.91,9.74 -13.54,15.63 -28.92,15.12 -12.5,-1.2 -23.24,6.42 -26.79,13.97 13.08,-2.05 19.55,3.29 23.8,12.14 0.24,0.26 0.49,0.37 0.57,0.88 0.1,0.66 1.66,1.65 1.89,7.62 0.15,3.75 0.17,6.26 -1.12,9.24 -3.56,-5.12 -3.52,-11.53 -11.22,-13.38 -8.79,-2.11 -13.6,2.69 -16.55,7.17 -20.39,30.89 -16.35,63.89 -2.64,96.26 2.53,5.98 5.82,11.28 7.51,17.1 8.61,-3.58 15.44,-23.17 17.29,-31.23 3.34,-14.57 1.61,-30.43 0.25,-45.5 0.3,0.19 0.72,0.17 0.86,0.63l5.06 4.98c11.85,14.23 20.49,33.09 25.65,50.97 4.99,-4.57 11.67,-22.9 14.49,-30.66 5.3,-14.58 4.31,-23.54 5.83,-39.07 5.05,4.12 12.1,9.54 16.13,15.71 -2.91,-10.96 -10.89,-25.11 -16.78,-33.8 -3.61,-5.33 -7.26,-9.75 -11.32,-14.31l-14.16 -12.21c8.4,0.61 15.42,4.16 22.79,5.38 5.03,2.06 8.49,2.73 13.27,5.23 4.92,2.57 8.15,5.4 12.53,7.6 1.02,-20.22 -1.2,-37.06 -4.95,-56.17 -1.66,-8.45 -11.56,-43.66 -11.03,-47.71 2.18,1.9 9.44,5.93 12.68,8.19 4.87,3.4 6.89,7.16 11.49,9.77 -4.91,-26.59 -21.69,-44.86 -35.55,-61.18 -1.44,-5.76 -24.4,-15.9 -29.65,-22.04l9.03 0.71c-4.96,-5.66 -40.42,-13.71 -57.6,-3.58 -10.36,6.11 -18.82,17.31 -24.58,27.89 -1.79,3.29 -2.98,7.39 -5.43,10.43 -3.38,-4.1 -12.02,-29 -30.72,-38.77 -15.02,-7.85 -45.33,-3.52 -54.99,2.4 -2.18,1.34 -0.68,0.16 -1.91,1.65z"/>
    <path class="fil2" d="M75.05 201.85c4.9,2.63 1.19,-0.75 1.09,1.92l-13.05 15.49c-4.91,6.82 -8.9,12.63 -12.42,21.3 -5.68,14 -8.18,42.39 -0.6,56.09l2.75 -6.99c0.81,-2.61 1.41,-4.39 2.41,-6.87 2.06,-5.11 4.66,-9.38 6.57,-13.1l2.58 4.67c0.52,1.36 1.16,3.59 1.72,5.2 4.19,12.03 22.97,58.55 34.18,64.12 1.94,-13.73 5.88,-40.63 12.44,-51.56 2.05,6.42 3.55,16.02 4.88,22.57 1.5,7.35 4.12,14.3 6.81,21.09 2.55,6.45 13.91,31.44 21.3,35.48 1.82,-15.59 7.57,-45.24 16.87,-55.03 3.83,8.5 7.37,30.97 10.31,41.58 2.51,9.02 9.91,32.37 15.16,38.04 8.91,-10.2 19.05,-52.02 22.51,-68.7 1.08,-5.18 0.76,-7.69 4.09,-10.9 2.83,7.94 6.82,14.37 9.71,25.2 2.49,9.3 5.05,20.25 6.02,29.8l4.3 -3.81c1.37,-1.78 1.89,-2.95 2.71,-4.2 21.73,-32.93 18.91,-50.59 26.02,-71.16 6.28,10.93 10.4,37 12.72,51.14 20.78,-16.87 33.18,-67.7 38.12,-73.49 9.83,18.83 5.12,11.59 9.78,22.61l2.81 4.48c6.9,-37.39 4.57,-57.62 -21.12,-86.64 -3.56,-4.02 -6,-4.4 -7.88,-9.23 -7.38,-1.22 -14.4,-4.77 -22.79,-5.38l14.16 12.21c4.06,4.56 7.71,8.98 11.32,14.31 5.89,8.69 13.87,22.84 16.78,33.8 -4.03,-6.17 -11.08,-11.59 -16.13,-15.71 -1.52,15.53 -0.53,24.49 -5.83,39.07 -2.82,7.76 -9.51,26.09 -14.49,30.66 -5.16,-17.88 -13.8,-36.74 -25.65,-50.97l-5.06 -4.98c-0.14,-0.47 -0.56,-0.44 -0.86,-0.63 1.35,15.07 3.09,30.93 -0.25,45.5 -1.85,8.06 -8.68,27.65 -17.29,31.23 -1.69,-5.82 -4.98,-11.11 -7.51,-17.1 -13.71,-32.37 -17.75,-65.37 2.64,-96.26 2.95,-4.48 7.76,-9.28 16.55,-7.17 7.71,1.85 7.66,8.26 11.22,13.38 1.29,-2.98 1.27,-5.49 1.12,-9.24 -0.23,-5.97 -1.79,-6.96 -1.89,-7.62 -0.08,-0.51 -0.34,-0.62 -0.57,-0.88 -2.04,2.18 -0.77,0.26 -4.35,-3.26 -1.8,-1.77 -3.67,-3.41 -6.62,-4.14 -18.11,-4.48 -25.18,21.26 -29.08,30.97 -4.85,12.06 -18.31,49.44 -25.21,56.03 -19.1,-18.89 -28.71,-109.61 -61.37,-82.03 -0.64,0.54 -1.87,1.73 -2.3,2.04 -2.39,1.76 0.19,1.42 -1.56,0.59 -1.6,1.71 -0.61,0.31 -1.52,2.53 -1.37,3.36 -1.4,12.16 0.14,15.65 3.26,-5.59 3.56,-12.24 11.23,-14.08 8.42,-2.01 13.65,3.44 16.37,7.36 23.74,34.2 14.29,71.34 -1.44,105.71l-4.75 7.38c-18.79,-17.26 -18.04,-47.13 -16.09,-76.43 -13.74,7.93 -27.46,44.07 -31.48,56.38 -4.39,-3.81 -12.04,-23.51 -14.59,-30.62 -5.12,-14.28 -4.34,-23.56 -5.71,-39.14 -5.21,3.41 -12.46,9.82 -15.99,15.69 2.18,-10.33 11.14,-26.32 17.08,-34.41 8.4,-11.44 14.62,-17.46 24.87,-25.94l-25.86 6.41z"/>
    <path class="fil0" d="M72.67 133.04c-0.26,4.03 -0.62,2.04 1.18,3.73 17.93,-14.65 21.12,7.06 33.34,20.58 9.12,10.1 34.55,16.03 45.8,3.9 -0.9,11.18 -0.88,17.95 -0.79,29.32 -5.53,-4.96 -8.39,-10.52 -20.33,-12.3 -7.97,-1.19 -6.24,-0.01 -7.72,0.42l-1.92 0.95c11.18,-1.22 21.27,6.74 24.36,13.42 -12.66,-2.15 -21.06,3.35 -23.79,12.31 1.75,0.83 -0.84,1.16 1.56,-0.59 0.43,-0.31 1.66,-1.51 2.3,-2.04 32.66,-27.58 42.27,63.14 61.37,82.03 6.9,-6.59 20.36,-43.97 25.21,-56.03 3.9,-9.71 10.98,-35.45 29.08,-30.97 2.94,0.73 4.82,2.37 6.62,4.14 3.58,3.52 2.31,5.44 4.35,3.26 -4.26,-8.85 -10.72,-14.19 -23.8,-12.14 3.55,-7.55 14.29,-15.17 26.79,-13.97 -16.51,-5.38 -26.48,6.14 -32.41,11.5 -0.01,-11.38 0.33,-17.92 -0.86,-29.39 12.3,12.33 37.15,6.45 46.43,-4.45 5.06,-5.94 7.99,-12.12 12.64,-18.8 7.11,-10.21 17.15,-5.01 20.77,-0.02l1.28 0.14c-0.55,-14.26 -13.38,-20.38 -28.74,-15.73 -25.31,7.67 -33.63,39.29 -65.14,9.03 -13.9,-13.35 -18.44,-23.18 -22.22,-26.59 -2.4,2.17 -7.59,10.04 -9.9,13.24 -5.74,7.95 -14.99,17.65 -24.02,22.75 -6.62,3.73 -12.98,4.38 -20.64,1.49 -13.5,-5.09 -27.48,-25.65 -48.16,-20.81 -7.76,1.82 -10.05,5.15 -12.65,11.61z"/>
    <path class="fil2" d="M99.92 45.36c1.23,-1.48 -0.27,-0.31 1.91,-1.65 9.66,-5.91 39.96,-10.24 54.99,-2.4 18.71,9.77 27.34,34.67 30.72,38.77 2.45,-3.03 3.64,-7.13 5.43,-10.43 5.76,-10.58 14.22,-21.78 24.58,-27.89 17.18,-10.13 52.64,-2.08 57.6,3.58l6.33 1.78c-12.41,-14.55 -61.46,-29.81 -74.82,-25.04 -10.68,3.81 -16.66,13.96 -19.13,16.07 -3.84,-3.29 -3.6,-5.5 -7.64,-8.78 -2.01,-1.63 -7.67,-5.51 -10.74,-6.89 -13.21,-5.95 -62.39,9.97 -75.55,24.55l6.32 -1.69z"/>
    <path class="fil3 str1" d="M164.94 180.87c3.57,1.35 1.04,-0.25 3.38,2.31l10.8 21.94c3.14,7.01 5.89,23.14 8.91,28.26 2,-3.07 4.76,-19.2 9.32,-29.21 2.86,-6.28 8.61,-21.22 12.76,-24.62 0.43,-6.12 -2.52,-13.92 -4.79,-19.34 -3.47,-8.28 -8.29,-8.31 -18.5,-8.12 -10.03,0.2 -13.09,0.56 -16.4,8.95 -2.2,5.57 -4.5,13.34 -5.48,19.83z"/>
    <path class="fil4" d="M164.21 181.29c-6.55,18.49 0.62,30.57 6.55,46.63 2.87,7.76 13.9,37.54 17.26,41.69 3.46,-4.14 22.32,-53.26 24.76,-63.23 1.8,-7.33 1.94,-21.77 -2.67,-26.84 -4.15,3.4 -9.91,18.34 -12.76,24.62 -4.56,10.02 -7.32,26.14 -9.32,29.21 -3.02,-5.13 -5.77,-21.26 -8.91,-28.26l-10.8 -21.94c-2.34,-2.55 -0.53,-0.54 -4.11,-1.88z"/>
    <path class="fil2" d="M52.55 213.76c-4.14,-40.81 12.48,-75.1 16.41,-103.69 -11.19,4.76 -16.84,11.38 -24.32,18.05 -0.14,-8.16 9.13,-26.56 13.29,-33.15 7.06,-11.2 13.58,-18.5 21.87,-28.31 -10.13,4.8 -24.09,22.61 -31.5,35.07 -7.97,13.4 -13.82,32.68 -15.38,50.64 11.61,-6.33 14.51,-16.74 22.92,-25.13 -2.62,14.02 -8.75,29.38 -11.76,44.96 -3.3,17.09 -4.98,35.08 -4.74,53.21 2.98,-1.58 10.63,-8.96 13.21,-11.65z"/>
    <path class="fil2" d="M323.63 213.78l13.15 11.72c0.54,-51.48 -8.32,-59.07 -16.58,-98.26 8.34,8.18 11.33,18.76 22.88,25.16 -1.11,-17.32 -7.64,-37.77 -15.31,-50.66 -7.34,-12.34 -21.27,-30.29 -31.5,-35.06 13.86,16.32 30.64,34.59 35.55,61.18 -4.6,-2.61 -6.62,-6.37 -11.49,-9.77 -3.24,-2.26 -10.49,-6.28 -12.68,-8.19 -0.53,4.05 9.37,39.25 11.03,47.71 3.75,19.11 5.97,35.95 4.95,56.17z"/>
    <path class="fil2" d="M72.67 133.04l-2.67 3.52c4.66,5.56 7.01,-2.72 12.79,9.91 6.37,13.94 11.9,35.21 39.45,33.16l1.92 -0.95c1.48,-0.43 -0.25,-1.62 7.72,-0.42 11.94,1.79 14.8,7.35 20.33,12.3 -0.09,-11.37 -0.11,-18.14 0.79,-29.32 -11.24,12.13 -36.67,6.2 -45.8,-3.9 -12.21,-13.52 -15.41,-35.23 -33.34,-20.58 -1.8,-1.68 -1.44,0.3 -1.18,-3.73z"/>
    <path class="fil2" d="M256.28 179.05c15.37,0.51 23,-5.39 28.92,-15.12 2.53,-4.17 4.73,-9.45 6.74,-14.14 2.84,-6.64 2.83,-10.03 10.92,-11.89 -3.62,-4.99 -13.66,-10.19 -20.77,0.02 -4.65,6.67 -7.58,12.86 -12.64,18.8 -9.28,10.89 -34.13,16.78 -46.43,4.45 1.19,11.47 0.85,18.01 0.86,29.39 5.93,-5.36 15.9,-16.89 32.41,-11.5z"/>
    <path class="fil5" d="M156.55 182.99l2.95 -6.17c0.64,-2.14 1.25,-4.59 2.1,-7.11 6.62,-19.64 7.63,-24.77 27.63,-24.42 26.9,0.47 19.31,18.16 29.73,39.13 4.08,-7.38 0.72,-26.43 -2.95,-33.38 -12.71,-24.09 -69.26,-22.91 -59.46,31.94z"/>
    <path class="fil1" d="M255.13 137.08c4.19,3.99 5.76,11.36 -4.96,6.68 -2.92,-1.28 -0.67,-0.85 -2.02,-1.24 -1.78,-0.51 -4.01,0.86 -5.66,3.37 8.55,14.76 28.73,0.53 16.9,-11.7l-4.26 2.88z"/>
    <path class="fil1" d="M133.57 145.89c-1.09,-1.66 -2.94,-3.72 -5.11,-3.53 -1.16,0.1 -0.85,0.57 -2.01,1.13 -3.12,2.28 -6.83,4.09 -8.16,-0.17 -1.03,-3.3 0.85,-4.45 2.64,-6.26l-4.03 -3.14c-12.07,12.05 7.7,26.79 16.67,11.97z"/>
   </g>
   <g>
    <path class="fil6" d="M194.25 11.02l-0.53 0.01 0 394.93c122.15,-3.24 220.75,-99.51 220.75,-203.41 0,-87.97 -95.15,-191.53 -220.22,-191.53z"/>
    <path class="fil7" d="M193.72 18.83l0.53 -0.01c123.34,0 217.58,100.71 220.16,187.88 0.03,-1.38 0.06,-2.77 0.06,-4.15 0,-87.97 -95.15,-191.53 -220.22,-191.53l-0.53 0.01 0 394.93 0 -387.12z"/>
    <path class="fil8" d="M216.55 186.5c0,3.62 -2.91,6.56 -6.5,6.56 -3.59,0 -6.5,-2.94 -6.5,-6.56 0,-3.62 2.91,-6.56 6.5,-6.56 3.59,0 6.5,2.94 6.5,6.56z"/>
    <path class="fil8" d="M216.55 167.21c0,3.62 -2.91,6.56 -6.5,6.56 -3.59,0 -6.5,-2.94 -6.5,-6.56 0,-3.62 2.91,-6.56 6.5,-6.56 3.59,0 6.5,2.94 6.5,6.56z"/>
    <path class="fil8" d="M216.55 147.91c0,3.62 -2.91,6.56 -6.5,6.56 -3.59,0 -6.5,-2.94 -6.5,-6.56 0,-3.62 2.91,-6.56 6.5,-6.56 3.59,0 6.5,2.94 6.5,6.56z"/>
    <path class="fil8" d="M216.55 128.62c0,3.63 -2.91,6.56 -6.5,6.56 -3.59,0 -6.5,-2.94 -6.5,-6.56 0,-3.62 2.91,-6.56 6.5,-6.56 3.59,0 6.5,2.94 6.5,6.56z"/>
    <path class="fil8" d="M216.55 109.33c0,3.62 -2.91,6.56 -6.5,6.56 -3.59,0 -6.5,-2.94 -6.5,-6.56 0,-3.62 2.91,-6.56 6.5,-6.56 3.59,0 6.5,2.94 6.5,6.56z"/>
    <path class="fil8" d="M216.55 90.04c0,3.62 -2.91,6.56 -6.5,6.56 -3.59,0 -6.5,-2.94 -6.5,-6.56 0,-3.62 2.91,-6.56 6.5,-6.56 3.59,0 6.5,2.94 6.5,6.56z"/>
    <path class="fil8" d="M216.55 70.75c0,3.62 -2.91,6.56 -6.5,6.56 -3.59,0 -6.5,-2.94 -6.5,-6.56 0,-3.62 2.91,-6.56 6.5,-6.56 3.59,0 6.5,2.94 6.5,6.56z"/>
    <path class="fil8" d="M216.55 51.46c0,3.62 -2.91,6.56 -6.5,6.56 -3.59,0 -6.5,-2.94 -6.5,-6.56 0,-3.63 2.91,-6.56 6.5,-6.56 3.59,0 6.5,2.94 6.5,6.56z"/>
    <path class="fil8" d="M216.55 32.17c0,3.62 -2.91,6.56 -6.5,6.56 -3.59,0 -6.5,-2.94 -6.5,-6.56 0,-3.62 2.91,-6.56 6.5,-6.56 3.59,0 6.5,2.94 6.5,6.56z"/>
    <path class="fil8" d="M254.04 186.5c0,3.62 -2.91,6.56 -6.5,6.56 -3.59,0 -6.5,-2.94 -6.5,-6.56 0,-3.62 2.91,-6.56 6.5,-6.56 3.59,0 6.5,2.94 6.5,6.56z"/>
    <path class="fil8" d="M254.04 167.21c0,3.62 -2.91,6.56 -6.5,6.56 -3.59,0 -6.5,-2.94 -6.5,-6.56 0,-3.62 2.91,-6.56 6.5,-6.56 3.59,0 6.5,2.94 6.5,6.56z"/>
    <path class="fil8" d="M254.04 147.91c0,3.62 -2.91,6.56 -6.5,6.56 -3.59,0 -6.5,-2.94 -6.5,-6.56 0,-3.62 2.91,-6.56 6.5,-6.56 3.59,0 6.5,2.94 6.5,6.56z"/>
    <path class="fil8" d="M254.04 128.62c0,3.63 -2.91,6.56 -6.5,6.56 -3.59,0 -6.5,-2.94 -6.5,-6.56 0,-3.62 2.91,-6.56 6.5,-6.56 3.59,0 6.5,2.94 6.5,6.56z"/>
    <path class="fil8" d="M254.04 109.33c0,3.62 -2.91,6.56 -6.5,6.56 -3.59,0 -6.5,-2.94 -6.5,-6.56 0,-3.62 2.91,-6.56 6.5,-6.56 3.59,0 6.5,2.94 6.5,6.56z"/>
    <path class="fil8" d="M254.04 90.04c0,3.62 -2.91,6.56 -6.5,6.56 -3.59,0 -6.5,-2.94 -6.5,-6.56 0,-3.62 2.91,-6.56 6.5,-6.56 3.59,0 6.5,2.94 6.5,6.56z"/>
    <path class="fil8" d="M254.04 70.75c0,3.62 -2.91,6.56 -6.5,6.56 -3.59,0 -6.5,-2.94 -6.5,-6.56 0,-3.62 2.91,-6.56 6.5,-6.56 3.59,0 6.5,2.94 6.5,6.56z"/>
    <path class="fil8" d="M254.04 51.46c0,3.62 -2.91,6.56 -6.5,6.56 -3.59,0 -6.5,-2.94 -6.5,-6.56 0,-3.63 2.91,-6.56 6.5,-6.56 3.59,0 6.5,2.94 6.5,6.56z"/>
    <path class="fil8" d="M254.04 35.72c0,3.62 -2.91,6.56 -6.5,6.56 -3.59,0 -6.5,-2.94 -6.5,-6.56 0,-3.62 2.91,-6.56 6.5,-6.56 3.59,0 6.5,2.94 6.5,6.56z"/>
    <path class="fil8" d="M235.55 177.31c0,3.62 -2.91,6.56 -6.5,6.56 -3.59,0 -6.5,-2.94 -6.5,-6.56 0,-3.63 2.91,-6.56 6.5,-6.56 3.59,0 6.5,2.94 6.5,6.56z"/>
    <path class="fil8" d="M235.55 158.02c0,3.62 -2.91,6.56 -6.5,6.56 -3.59,0 -6.5,-2.94 -6.5,-6.56 0,-3.62 2.91,-6.56 6.5,-6.56 3.59,0 6.5,2.94 6.5,6.56z"/>
    <path class="fil8" d="M235.55 138.73c0,3.62 -2.91,6.56 -6.5,6.56 -3.59,0 -6.5,-2.94 -6.5,-6.56 0,-3.62 2.91,-6.56 6.5,-6.56 3.59,0 6.5,2.94 6.5,6.56z"/>
    <path class="fil8" d="M235.55 119.44c0,3.62 -2.91,6.56 -6.5,6.56 -3.59,0 -6.5,-2.94 -6.5,-6.56 0,-3.62 2.91,-6.56 6.5,-6.56 3.59,0 6.5,2.94 6.5,6.56z"/>
    <path class="fil8" d="M235.55 100.15c0,3.62 -2.91,6.56 -6.5,6.56 -3.59,0 -6.5,-2.94 -6.5,-6.56 0,-3.62 2.91,-6.56 6.5,-6.56 3.59,0 6.5,2.94 6.5,6.56z"/>
    <path class="fil8" d="M235.55 80.86c0,3.62 -2.91,6.56 -6.5,6.56 -3.59,0 -6.5,-2.94 -6.5,-6.56 0,-3.62 2.91,-6.56 6.5,-6.56 3.59,0 6.5,2.94 6.5,6.56z"/>
    <path class="fil8" d="M235.55 61.57c0,3.62 -2.91,6.56 -6.5,6.56 -3.59,0 -6.5,-2.94 -6.5,-6.56 0,-3.62 2.91,-6.56 6.5,-6.56 3.59,0 6.5,2.94 6.5,6.56z"/>
    <path class="fil8" d="M235.55 42.27c0,3.62 -2.91,6.56 -6.5,6.56 -3.59,0 -6.5,-2.94 -6.5,-6.56 0,-3.62 2.91,-6.56 6.5,-6.56 3.59,0 6.5,2.94 6.5,6.56z"/>
    <path class="fil8" d="M272.61 177.31c0,3.62 -2.91,6.56 -6.5,6.56 -3.59,0 -6.5,-2.94 -6.5,-6.56 0,-3.63 2.91,-6.56 6.5,-6.56 3.59,0 6.5,2.94 6.5,6.56z"/>
    <path class="fil8" d="M272.61 158.02c0,3.62 -2.91,6.56 -6.5,6.56 -3.59,0 -6.5,-2.94 -6.5,-6.56 0,-3.62 2.91,-6.56 6.5,-6.56 3.59,0 6.5,2.94 6.5,6.56z"/>
    <path class="fil8" d="M272.61 138.73c0,3.62 -2.91,6.56 -6.5,6.56 -3.59,0 -6.5,-2.94 -6.5,-6.56 0,-3.62 2.91,-6.56 6.5,-6.56 3.59,0 6.5,2.94 6.5,6.56z"/>
    <path class="fil8" d="M272.61 119.44c0,3.62 -2.91,6.56 -6.5,6.56 -3.59,0 -6.5,-2.94 -6.5,-6.56 0,-3.62 2.91,-6.56 6.5,-6.56 3.59,0 6.5,2.94 6.5,6.56z"/>
    <path class="fil8" d="M272.61 100.15c0,3.62 -2.91,6.56 -6.5,6.56 -3.59,0 -6.5,-2.94 -6.5,-6.56 0,-3.62 2.91,-6.56 6.5,-6.56 3.59,0 6.5,2.94 6.5,6.56z"/>
    <path class="fil8" d="M272.61 80.86c0,3.62 -2.91,6.56 -6.5,6.56 -3.59,0 -6.5,-2.94 -6.5,-6.56 0,-3.62 2.91,-6.56 6.5,-6.56 3.59,0 6.5,2.94 6.5,6.56z"/>
    <path class="fil8" d="M272.61 61.57c0,3.62 -2.91,6.56 -6.5,6.56 -3.59,0 -6.5,-2.94 -6.5,-6.56 0,-3.62 2.91,-6.56 6.5,-6.56 3.59,0 6.5,2.94 6.5,6.56z"/>
    <path class="fil8" d="M272.61 42.27c0,3.62 -2.91,6.56 -6.5,6.56 -3.59,0 -6.5,-2.94 -6.5,-6.56 0,-3.62 2.91,-6.56 6.5,-6.56 3.59,0 6.5,2.94 6.5,6.56z"/>
    <path class="fil8" d="M290.1 186.5c0,3.62 -2.91,6.56 -6.5,6.56 -3.59,0 -6.5,-2.94 -6.5,-6.56 0,-3.62 2.91,-6.56 6.5,-6.56 3.59,0 6.5,2.94 6.5,6.56z"/>
    <path class="fil8" d="M290.1 167.21c0,3.62 -2.91,6.56 -6.5,6.56 -3.59,0 -6.5,-2.94 -6.5,-6.56 0,-3.62 2.91,-6.56 6.5,-6.56 3.59,0 6.5,2.94 6.5,6.56z"/>
    <path class="fil8" d="M290.1 147.91c0,3.62 -2.91,6.56 -6.5,6.56 -3.59,0 -6.5,-2.94 -6.5,-6.56 0,-3.62 2.91,-6.56 6.5,-6.56 3.59,0 6.5,2.94 6.5,6.56z"/>
    <path class="fil8" d="M290.1 128.62c0,3.63 -2.91,6.56 -6.5,6.56 -3.59,0 -6.5,-2.94 -6.5,-6.56 0,-3.62 2.91,-6.56 6.5,-6.56 3.59,0 6.5,2.94 6.5,6.56z"/>
    <path class="fil8" d="M290.1 109.33c0,3.62 -2.91,6.56 -6.5,6.56 -3.59,0 -6.5,-2.94 -6.5,-6.56 0,-3.62 2.91,-6.56 6.5,-6.56 3.59,0 6.5,2.94 6.5,6.56z"/>
    <path class="fil8" d="M290.1 90.04c0,3.62 -2.91,6.56 -6.5,6.56 -3.59,0 -6.5,-2.94 -6.5,-6.56 0,-3.62 2.91,-6.56 6.5,-6.56 3.59,0 6.5,2.94 6.5,6.56z"/>
    <path class="fil8" d="M290.1 70.75c0,3.62 -2.91,6.56 -6.5,6.56 -3.59,0 -6.5,-2.94 -6.5,-6.56 0,-3.62 2.91,-6.56 6.5,-6.56 3.59,0 6.5,2.94 6.5,6.56z"/>
    <path class="fil8" d="M290.1 51.46c0,3.62 -2.91,6.56 -6.5,6.56 -3.59,0 -6.5,-2.94 -6.5,-6.56 0,-3.63 2.91,-6.56 6.5,-6.56 3.59,0 6.5,2.94 6.5,6.56z"/>
    <path class="fil8" d="M308.66 177.31c0,3.62 -2.91,6.56 -6.5,6.56 -3.59,0 -6.5,-2.94 -6.5,-6.56 0,-3.63 2.91,-6.56 6.5,-6.56 3.59,0 6.5,2.94 6.5,6.56z"/>
    <path class="fil8" d="M308.66 158.02c0,3.62 -2.91,6.56 -6.5,6.56 -3.59,0 -6.5,-2.94 -6.5,-6.56 0,-3.62 2.91,-6.56 6.5,-6.56 3.59,0 6.5,2.94 6.5,6.56z"/>
    <path class="fil8" d="M308.66 138.73c0,3.62 -2.91,6.56 -6.5,6.56 -3.59,0 -6.5,-2.94 -6.5,-6.56 0,-3.62 2.91,-6.56 6.5,-6.56 3.59,0 6.5,2.94 6.5,6.56z"/>
    <path class="fil8" d="M308.66 119.44c0,3.62 -2.91,6.56 -6.5,6.56 -3.59,0 -6.5,-2.94 -6.5,-6.56 0,-3.62 2.91,-6.56 6.5,-6.56 3.59,0 6.5,2.94 6.5,6.56z"/>
    <path class="fil8" d="M308.66 100.15c0,3.62 -2.91,6.56 -6.5,6.56 -3.59,0 -6.5,-2.94 -6.5,-6.56 0,-3.62 2.91,-6.56 6.5,-6.56 3.59,0 6.5,2.94 6.5,6.56z"/>
    <path class="fil8" d="M308.66 80.86c0,3.62 -2.91,6.56 -6.5,6.56 -3.59,0 -6.5,-2.94 -6.5,-6.56 0,-3.62 2.91,-6.56 6.5,-6.56 3.59,0 6.5,2.94 6.5,6.56z"/>
    <path class="fil8" d="M308.66 61.57c0,3.62 -2.91,6.56 -6.5,6.56 -3.59,0 -6.5,-2.94 -6.5,-6.56 0,-3.62 2.91,-6.56 6.5,-6.56 3.59,0 6.5,2.94 6.5,6.56z"/>
    <path class="fil8" d="M326.16 186.5c0,3.62 -2.91,6.56 -6.5,6.56 -3.59,0 -6.5,-2.94 -6.5,-6.56 0,-3.62 2.91,-6.56 6.5,-6.56 3.59,0 6.5,2.94 6.5,6.56z"/>
    <path class="fil8" d="M326.16 167.21c0,3.62 -2.91,6.56 -6.5,6.56 -3.59,0 -6.5,-2.94 -6.5,-6.56 0,-3.62 2.91,-6.56 6.5,-6.56 3.59,0 6.5,2.94 6.5,6.56z"/>
    <path class="fil8" d="M326.16 147.91c0,3.62 -2.91,6.56 -6.5,6.56 -3.59,0 -6.5,-2.94 -6.5,-6.56 0,-3.62 2.91,-6.56 6.5,-6.56 3.59,0 6.5,2.94 6.5,6.56z"/>
    <path class="fil8" d="M326.16 128.62c0,3.63 -2.91,6.56 -6.5,6.56 -3.59,0 -6.5,-2.94 -6.5,-6.56 0,-3.62 2.91,-6.56 6.5,-6.56 3.59,0 6.5,2.94 6.5,6.56z"/>
    <path class="fil8" d="M326.16 109.33c0,3.62 -2.91,6.56 -6.5,6.56 -3.59,0 -6.5,-2.94 -6.5,-6.56 0,-3.62 2.91,-6.56 6.5,-6.56 3.59,0 6.5,2.94 6.5,6.56z"/>
    <path class="fil8" d="M326.16 90.04c0,3.62 -2.91,6.56 -6.5,6.56 -3.59,0 -6.5,-2.94 -6.5,-6.56 0,-3.62 2.91,-6.56 6.5,-6.56 3.59,0 6.5,2.94 6.5,6.56z"/>
    <path class="fil8" d="M344.72 177.31c0,3.62 -2.91,6.56 -6.5,6.56 -3.59,0 -6.5,-2.94 -6.5,-6.56 0,-3.63 2.91,-6.56 6.5,-6.56 3.59,0 6.5,2.94 6.5,6.56z"/>
    <path class="fil8" d="M344.72 158.02c0,3.62 -2.91,6.56 -6.5,6.56 -3.59,0 -6.5,-2.94 -6.5,-6.56 0,-3.62 2.91,-6.56 6.5,-6.56 3.59,0 6.5,2.94 6.5,6.56z"/>
    <path class="fil8" d="M344.72 138.73c0,3.62 -2.91,6.56 -6.5,6.56 -3.59,0 -6.5,-2.94 -6.5,-6.56 0,-3.62 2.91,-6.56 6.5,-6.56 3.59,0 6.5,2.94 6.5,6.56z"/>
    <path class="fil8" d="M344.72 119.44c0,3.62 -2.91,6.56 -6.5,6.56 -3.59,0 -6.5,-2.94 -6.5,-6.56 0,-3.62 2.91,-6.56 6.5,-6.56 3.59,0 6.5,2.94 6.5,6.56z"/>
    <path class="fil8" d="M344.72 100.15c0,3.62 -2.91,6.56 -6.5,6.56 -3.59,0 -6.5,-2.94 -6.5,-6.56 0,-3.62 2.91,-6.56 6.5,-6.56 3.59,0 6.5,2.94 6.5,6.56z"/>
    <path class="fil8" d="M362.21 186.5c0,3.62 -2.91,6.56 -6.5,6.56 -3.59,0 -6.5,-2.94 -6.5,-6.56 0,-3.62 2.91,-6.56 6.5,-6.56 3.59,0 6.5,2.94 6.5,6.56z"/>
    <path class="fil8" d="M362.21 167.21c0,3.62 -2.91,6.56 -6.5,6.56 -3.59,0 -6.5,-2.94 -6.5,-6.56 0,-3.62 2.91,-6.56 6.5,-6.56 3.59,0 6.5,2.94 6.5,6.56z"/>
    <path class="fil8" d="M362.21 147.91c0,3.62 -2.91,6.56 -6.5,6.56 -3.59,0 -6.5,-2.94 -6.5,-6.56 0,-3.62 2.91,-6.56 6.5,-6.56 3.59,0 6.5,2.94 6.5,6.56z"/>
    <path class="fil8" d="M362.21 128.62c0,3.63 -2.91,6.56 -6.5,6.56 -3.59,0 -6.5,-2.94 -6.5,-6.56 0,-3.62 2.91,-6.56 6.5,-6.56 3.59,0 6.5,2.94 6.5,6.56z"/>
    <path class="fil8" d="M362.21 109.33c0,3.62 -2.91,6.56 -6.5,6.56 -3.59,0 -6.5,-2.94 -6.5,-6.56 0,-3.62 2.91,-6.56 6.5,-6.56 3.59,0 6.5,2.94 6.5,6.56z"/>
    <path class="fil8" d="M380.78 177.31c0,3.62 -2.91,6.56 -6.5,6.56 -3.59,0 -6.5,-2.94 -6.5,-6.56 0,-3.63 2.91,-6.56 6.5,-6.56 3.59,0 6.5,2.94 6.5,6.56z"/>
    <path class="fil8" d="M380.78 158.02c0,3.62 -2.91,6.56 -6.5,6.56 -3.59,0 -6.5,-2.94 -6.5,-6.56 0,-3.62 2.91,-6.56 6.5,-6.56 3.59,0 6.5,2.94 6.5,6.56z"/>
    <path class="fil8" d="M380.78 138.73c0,3.62 -2.91,6.56 -6.5,6.56 -3.59,0 -6.5,-2.94 -6.5,-6.56 0,-3.62 2.91,-6.56 6.5,-6.56 3.59,0 6.5,2.94 6.5,6.56z"/>
    <path class="fil8" d="M398.27 186.5c0,3.62 -2.91,6.56 -6.5,6.56 -3.59,0 -6.5,-2.94 -6.5,-6.56 0,-3.62 2.91,-6.56 6.5,-6.56 3.59,0 6.5,2.94 6.5,6.56z"/>
    <path class="fil8" d="M235.55 203.16c0,3.62 -2.91,6.56 -6.5,6.56 -3.59,0 -6.5,-2.94 -6.5,-6.56 0,-3.62 2.91,-6.56 6.5,-6.56 3.59,0 6.5,2.94 6.5,6.56z"/>
    <path class="fil8" d="M272.61 203.16c0,3.62 -2.91,6.56 -6.5,6.56 -3.59,0 -6.5,-2.94 -6.5,-6.56 0,-3.62 2.91,-6.56 6.5,-6.56 3.59,0 6.5,2.94 6.5,6.56z"/>
    <path class="fil8" d="M308.66 203.16c0,3.62 -2.91,6.56 -6.5,6.56 -3.59,0 -6.5,-2.94 -6.5,-6.56 0,-3.62 2.91,-6.56 6.5,-6.56 3.59,0 6.5,2.94 6.5,6.56z"/>
    <path class="fil8" d="M344.72 203.16c0,3.62 -2.91,6.56 -6.5,6.56 -3.59,0 -6.5,-2.94 -6.5,-6.56 0,-3.62 2.91,-6.56 6.5,-6.56 3.59,0 6.5,2.94 6.5,6.56z"/>
    <path class="fil8" d="M380.78 203.16c0,3.62 -2.91,6.56 -6.5,6.56 -3.59,0 -6.5,-2.94 -6.5,-6.56 0,-3.62 2.91,-6.56 6.5,-6.56 3.59,0 6.5,2.94 6.5,6.56z"/>
    <path class="fil8" d="M216.55 370.61c0,3.62 -2.91,6.56 -6.5,6.56 -3.59,0 -6.5,-2.93 -6.5,-6.56 0,-3.62 2.91,-6.56 6.5,-6.56 3.59,0 6.5,2.94 6.5,6.56z"/>
    <path class="fil8" d="M216.55 351.32c0,3.62 -2.91,6.56 -6.5,6.56 -3.59,0 -6.5,-2.93 -6.5,-6.56 0,-3.62 2.91,-6.56 6.5,-6.56 3.59,0 6.5,2.94 6.5,6.56z"/>
    <path class="fil8" d="M216.55 332.03c0,3.62 -2.91,6.56 -6.5,6.56 -3.59,0 -6.5,-2.94 -6.5,-6.56 0,-3.62 2.91,-6.56 6.5,-6.56 3.59,0 6.5,2.94 6.5,6.56z"/>
    <path class="fil8" d="M216.55 312.74c0,3.62 -2.91,6.56 -6.5,6.56 -3.59,0 -6.5,-2.94 -6.5,-6.56 0,-3.62 2.91,-6.56 6.5,-6.56 3.59,0 6.5,2.94 6.5,6.56z"/>
    <path class="fil8" d="M216.55 293.45c0,3.63 -2.91,6.56 -6.5,6.56 -3.59,0 -6.5,-2.94 -6.5,-6.56 0,-3.62 2.91,-6.56 6.5,-6.56 3.59,0 6.5,2.94 6.5,6.56z"/>
    <path class="fil8" d="M216.55 274.16c0,3.62 -2.91,6.56 -6.5,6.56 -3.59,0 -6.5,-2.94 -6.5,-6.56 0,-3.62 2.91,-6.56 6.5,-6.56 3.59,0 6.5,2.94 6.5,6.56z"/>
    <path class="fil8" d="M216.55 254.87c0,3.62 -2.91,6.56 -6.5,6.56 -3.59,0 -6.5,-2.94 -6.5,-6.56 0,-3.62 2.91,-6.56 6.5,-6.56 3.59,0 6.5,2.94 6.5,6.56z"/>
    <path class="fil8" d="M216.55 235.58c0,3.62 -2.91,6.56 -6.5,6.56 -3.59,0 -6.5,-2.94 -6.5,-6.56 0,-3.62 2.91,-6.56 6.5,-6.56 3.59,0 6.5,2.94 6.5,6.56z"/>
    <path class="fil8" d="M216.55 216.28c0,3.62 -2.91,6.56 -6.5,6.56 -3.59,0 -6.5,-2.94 -6.5,-6.56 0,-3.62 2.91,-6.56 6.5,-6.56 3.59,0 6.5,2.94 6.5,6.56z"/>
    <path class="fil8" d="M254.04 370.61c0,3.62 -2.91,6.56 -6.5,6.56 -3.59,0 -6.5,-2.93 -6.5,-6.56 0,-3.62 2.91,-6.56 6.5,-6.56 3.59,0 6.5,2.94 6.5,6.56z"/>
    <path class="fil8" d="M254.04 351.32c0,3.62 -2.91,6.56 -6.5,6.56 -3.59,0 -6.5,-2.93 -6.5,-6.56 0,-3.62 2.91,-6.56 6.5,-6.56 3.59,0 6.5,2.94 6.5,6.56z"/>
    <path class="fil8" d="M254.04 332.03c0,3.62 -2.91,6.56 -6.5,6.56 -3.59,0 -6.5,-2.94 -6.5,-6.56 0,-3.62 2.91,-6.56 6.5,-6.56 3.59,0 6.5,2.94 6.5,6.56z"/>
    <path class="fil8" d="M254.04 312.74c0,3.62 -2.91,6.56 -6.5,6.56 -3.59,0 -6.5,-2.94 -6.5,-6.56 0,-3.62 2.91,-6.56 6.5,-6.56 3.59,0 6.5,2.94 6.5,6.56z"/>
    <path class="fil8" d="M254.04 293.45c0,3.63 -2.91,6.56 -6.5,6.56 -3.59,0 -6.5,-2.94 -6.5,-6.56 0,-3.62 2.91,-6.56 6.5,-6.56 3.59,0 6.5,2.94 6.5,6.56z"/>
    <path class="fil8" d="M254.04 274.16c0,3.62 -2.91,6.56 -6.5,6.56 -3.59,0 -6.5,-2.94 -6.5,-6.56 0,-3.62 2.91,-6.56 6.5,-6.56 3.59,0 6.5,2.94 6.5,6.56z"/>
    <path class="fil8" d="M254.04 254.87c0,3.62 -2.91,6.56 -6.5,6.56 -3.59,0 -6.5,-2.94 -6.5,-6.56 0,-3.62 2.91,-6.56 6.5,-6.56 3.59,0 6.5,2.94 6.5,6.56z"/>
    <path class="fil8" d="M254.04 235.58c0,3.62 -2.91,6.56 -6.5,6.56 -3.59,0 -6.5,-2.94 -6.5,-6.56 0,-3.62 2.91,-6.56 6.5,-6.56 3.59,0 6.5,2.94 6.5,6.56z"/>
    <path class="fil8" d="M254.04 216.28c0,3.62 -2.91,6.56 -6.5,6.56 -3.59,0 -6.5,-2.94 -6.5,-6.56 0,-3.62 2.91,-6.56 6.5,-6.56 3.59,0 6.5,2.94 6.5,6.56z"/>
    <path class="fil8" d="M235.55 361.42c0,3.62 -2.91,6.56 -6.5,6.56 -3.59,0 -6.5,-2.94 -6.5,-6.56 0,-3.62 2.91,-6.56 6.5,-6.56 3.59,0 6.5,2.94 6.5,6.56z"/>
    <path class="fil8" d="M235.55 342.13c0,3.62 -2.91,6.56 -6.5,6.56 -3.59,0 -6.5,-2.94 -6.5,-6.56 0,-3.62 2.91,-6.56 6.5,-6.56 3.59,0 6.5,2.94 6.5,6.56z"/>
    <path class="fil8" d="M235.55 322.84c0,3.62 -2.91,6.56 -6.5,6.56 -3.59,0 -6.5,-2.94 -6.5,-6.56 0,-3.62 2.91,-6.56 6.5,-6.56 3.59,0 6.5,2.94 6.5,6.56z"/>
    <path class="fil8" d="M235.55 303.55c0,3.62 -2.91,6.56 -6.5,6.56 -3.59,0 -6.5,-2.94 -6.5,-6.56 0,-3.62 2.91,-6.56 6.5,-6.56 3.59,0 6.5,2.94 6.5,6.56z"/>
    <path class="fil8" d="M235.55 284.26c0,3.62 -2.91,6.56 -6.5,6.56 -3.59,0 -6.5,-2.94 -6.5,-6.56 0,-3.62 2.91,-6.56 6.5,-6.56 3.59,0 6.5,2.94 6.5,6.56z"/>
    <path class="fil8" d="M235.55 264.97c0,3.62 -2.91,6.56 -6.5,6.56 -3.59,0 -6.5,-2.94 -6.5,-6.56 0,-3.62 2.91,-6.56 6.5,-6.56 3.59,0 6.5,2.94 6.5,6.56z"/>
    <path class="fil8" d="M235.55 245.68c0,3.62 -2.91,6.56 -6.5,6.56 -3.59,0 -6.5,-2.94 -6.5,-6.56 0,-3.62 2.91,-6.56 6.5,-6.56 3.59,0 6.5,2.94 6.5,6.56z"/>
    <path class="fil8" d="M235.55 226.39c0,3.62 -2.91,6.56 -6.5,6.56 -3.59,0 -6.5,-2.94 -6.5,-6.56 0,-3.62 2.91,-6.56 6.5,-6.56 3.59,0 6.5,2.94 6.5,6.56z"/>
    <path class="fil8" d="M272.61 361.42c0,3.62 -2.91,6.56 -6.5,6.56 -3.59,0 -6.5,-2.94 -6.5,-6.56 0,-3.62 2.91,-6.56 6.5,-6.56 3.59,0 6.5,2.94 6.5,6.56z"/>
    <path class="fil8" d="M272.61 342.13c0,3.62 -2.91,6.56 -6.5,6.56 -3.59,0 -6.5,-2.94 -6.5,-6.56 0,-3.62 2.91,-6.56 6.5,-6.56 3.59,0 6.5,2.94 6.5,6.56z"/>
    <path class="fil8" d="M272.61 322.84c0,3.62 -2.91,6.56 -6.5,6.56 -3.59,0 -6.5,-2.94 -6.5,-6.56 0,-3.62 2.91,-6.56 6.5,-6.56 3.59,0 6.5,2.94 6.5,6.56z"/>
    <path class="fil8" d="M272.61 303.55c0,3.62 -2.91,6.56 -6.5,6.56 -3.59,0 -6.5,-2.94 -6.5,-6.56 0,-3.62 2.91,-6.56 6.5,-6.56 3.59,0 6.5,2.94 6.5,6.56z"/>
    <path class="fil8" d="M272.61 284.26c0,3.62 -2.91,6.56 -6.5,6.56 -3.59,0 -6.5,-2.94 -6.5,-6.56 0,-3.62 2.91,-6.56 6.5,-6.56 3.59,0 6.5,2.94 6.5,6.56z"/>
    <path class="fil8" d="M272.61 264.97c0,3.62 -2.91,6.56 -6.5,6.56 -3.59,0 -6.5,-2.94 -6.5,-6.56 0,-3.62 2.91,-6.56 6.5,-6.56 3.59,0 6.5,2.94 6.5,6.56z"/>
    <path class="fil8" d="M272.61 245.68c0,3.62 -2.91,6.56 -6.5,6.56 -3.59,0 -6.5,-2.94 -6.5,-6.56 0,-3.62 2.91,-6.56 6.5,-6.56 3.59,0 6.5,2.94 6.5,6.56z"/>
    <path class="fil8" d="M272.61 226.39c0,3.62 -2.91,6.56 -6.5,6.56 -3.59,0 -6.5,-2.94 -6.5,-6.56 0,-3.62 2.91,-6.56 6.5,-6.56 3.59,0 6.5,2.94 6.5,6.56z"/>
    <path class="fil8" d="M290.1 370.61c0,3.62 -2.91,6.56 -6.5,6.56 -3.59,0 -6.5,-2.93 -6.5,-6.56 0,-3.62 2.91,-6.56 6.5,-6.56 3.59,0 6.5,2.94 6.5,6.56z"/>
    <path class="fil8" d="M290.1 351.32c0,3.62 -2.91,6.56 -6.5,6.56 -3.59,0 -6.5,-2.93 -6.5,-6.56 0,-3.62 2.91,-6.56 6.5,-6.56 3.59,0 6.5,2.94 6.5,6.56z"/>
    <path class="fil8" d="M290.1 332.03c0,3.62 -2.91,6.56 -6.5,6.56 -3.59,0 -6.5,-2.94 -6.5,-6.56 0,-3.62 2.91,-6.56 6.5,-6.56 3.59,0 6.5,2.94 6.5,6.56z"/>
    <path class="fil8" d="M290.1 312.74c0,3.62 -2.91,6.56 -6.5,6.56 -3.59,0 -6.5,-2.94 -6.5,-6.56 0,-3.62 2.91,-6.56 6.5,-6.56 3.59,0 6.5,2.94 6.5,6.56z"/>
    <path class="fil8" d="M290.1 293.45c0,3.63 -2.91,6.56 -6.5,6.56 -3.59,0 -6.5,-2.94 -6.5,-6.56 0,-3.62 2.91,-6.56 6.5,-6.56 3.59,0 6.5,2.94 6.5,6.56z"/>
    <path class="fil8" d="M290.1 274.16c0,3.62 -2.91,6.56 -6.5,6.56 -3.59,0 -6.5,-2.94 -6.5,-6.56 0,-3.62 2.91,-6.56 6.5,-6.56 3.59,0 6.5,2.94 6.5,6.56z"/>
    <path class="fil8" d="M290.1 254.87c0,3.62 -2.91,6.56 -6.5,6.56 -3.59,0 -6.5,-2.94 -6.5,-6.56 0,-3.62 2.91,-6.56 6.5,-6.56 3.59,0 6.5,2.94 6.5,6.56z"/>
    <path class="fil8" d="M290.1 235.58c0,3.62 -2.91,6.56 -6.5,6.56 -3.59,0 -6.5,-2.94 -6.5,-6.56 0,-3.62 2.91,-6.56 6.5,-6.56 3.59,0 6.5,2.94 6.5,6.56z"/>
    <path class="fil8" d="M290.1 216.28c0,3.62 -2.91,6.56 -6.5,6.56 -3.59,0 -6.5,-2.94 -6.5,-6.56 0,-3.62 2.91,-6.56 6.5,-6.56 3.59,0 6.5,2.94 6.5,6.56z"/>
    <path class="fil8" d="M308.66 361.42c0,3.62 -2.91,6.56 -6.5,6.56 -3.59,0 -6.5,-2.94 -6.5,-6.56 0,-3.62 2.91,-6.56 6.5,-6.56 3.59,0 6.5,2.94 6.5,6.56z"/>
    <path class="fil8" d="M308.66 342.13c0,3.62 -2.91,6.56 -6.5,6.56 -3.59,0 -6.5,-2.94 -6.5,-6.56 0,-3.62 2.91,-6.56 6.5,-6.56 3.59,0 6.5,2.94 6.5,6.56z"/>
    <path class="fil8" d="M308.66 322.84c0,3.62 -2.91,6.56 -6.5,6.56 -3.59,0 -6.5,-2.94 -6.5,-6.56 0,-3.62 2.91,-6.56 6.5,-6.56 3.59,0 6.5,2.94 6.5,6.56z"/>
    <path class="fil8" d="M308.66 303.55c0,3.62 -2.91,6.56 -6.5,6.56 -3.59,0 -6.5,-2.94 -6.5,-6.56 0,-3.62 2.91,-6.56 6.5,-6.56 3.59,0 6.5,2.94 6.5,6.56z"/>
    <path class="fil8" d="M308.66 284.26c0,3.62 -2.91,6.56 -6.5,6.56 -3.59,0 -6.5,-2.94 -6.5,-6.56 0,-3.62 2.91,-6.56 6.5,-6.56 3.59,0 6.5,2.94 6.5,6.56z"/>
    <path class="fil8" d="M308.66 264.97c0,3.62 -2.91,6.56 -6.5,6.56 -3.59,0 -6.5,-2.94 -6.5,-6.56 0,-3.62 2.91,-6.56 6.5,-6.56 3.59,0 6.5,2.94 6.5,6.56z"/>
    <path class="fil8" d="M308.66 245.68c0,3.62 -2.91,6.56 -6.5,6.56 -3.59,0 -6.5,-2.94 -6.5,-6.56 0,-3.62 2.91,-6.56 6.5,-6.56 3.59,0 6.5,2.94 6.5,6.56z"/>
    <path class="fil8" d="M308.66 226.39c0,3.62 -2.91,6.56 -6.5,6.56 -3.59,0 -6.5,-2.94 -6.5,-6.56 0,-3.62 2.91,-6.56 6.5,-6.56 3.59,0 6.5,2.94 6.5,6.56z"/>
    <path class="fil8" d="M326.16 351.32c0,3.62 -2.91,6.56 -6.5,6.56 -3.59,0 -6.5,-2.93 -6.5,-6.56 0,-3.62 2.91,-6.56 6.5,-6.56 3.59,0 6.5,2.94 6.5,6.56z"/>
    <path class="fil8" d="M326.16 332.03c0,3.62 -2.91,6.56 -6.5,6.56 -3.59,0 -6.5,-2.94 -6.5,-6.56 0,-3.62 2.91,-6.56 6.5,-6.56 3.59,0 6.5,2.94 6.5,6.56z"/>
    <path class="fil8" d="M326.16 312.74c0,3.62 -2.91,6.56 -6.5,6.56 -3.59,0 -6.5,-2.94 -6.5,-6.56 0,-3.62 2.91,-6.56 6.5,-6.56 3.59,0 6.5,2.94 6.5,6.56z"/>
    <path class="fil8" d="M326.16 293.45c0,3.63 -2.91,6.56 -6.5,6.56 -3.59,0 -6.5,-2.94 -6.5,-6.56 0,-3.62 2.91,-6.56 6.5,-6.56 3.59,0 6.5,2.94 6.5,6.56z"/>
    <path class="fil8" d="M326.16 274.16c0,3.62 -2.91,6.56 -6.5,6.56 -3.59,0 -6.5,-2.94 -6.5,-6.56 0,-3.62 2.91,-6.56 6.5,-6.56 3.59,0 6.5,2.94 6.5,6.56z"/>
    <path class="fil8" d="M326.16 254.87c0,3.62 -2.91,6.56 -6.5,6.56 -3.59,0 -6.5,-2.94 -6.5,-6.56 0,-3.62 2.91,-6.56 6.5,-6.56 3.59,0 6.5,2.94 6.5,6.56z"/>
    <path class="fil8" d="M326.16 235.58c0,3.62 -2.91,6.56 -6.5,6.56 -3.59,0 -6.5,-2.94 -6.5,-6.56 0,-3.62 2.91,-6.56 6.5,-6.56 3.59,0 6.5,2.94 6.5,6.56z"/>
    <path class="fil8" d="M326.16 216.28c0,3.62 -2.91,6.56 -6.5,6.56 -3.59,0 -6.5,-2.94 -6.5,-6.56 0,-3.62 2.91,-6.56 6.5,-6.56 3.59,0 6.5,2.94 6.5,6.56z"/>
    <path class="fil8" d="M344.72 342.13c0,3.62 -2.91,6.56 -6.5,6.56 -3.59,0 -6.5,-2.94 -6.5,-6.56 0,-3.62 2.91,-6.56 6.5,-6.56 3.59,0 6.5,2.94 6.5,6.56z"/>
    <path class="fil8" d="M344.72 322.84c0,3.62 -2.91,6.56 -6.5,6.56 -3.59,0 -6.5,-2.94 -6.5,-6.56 0,-3.62 2.91,-6.56 6.5,-6.56 3.59,0 6.5,2.94 6.5,6.56z"/>
    <path class="fil8" d="M344.72 303.55c0,3.62 -2.91,6.56 -6.5,6.56 -3.59,0 -6.5,-2.94 -6.5,-6.56 0,-3.62 2.91,-6.56 6.5,-6.56 3.59,0 6.5,2.94 6.5,6.56z"/>
    <path class="fil8" d="M344.72 284.26c0,3.62 -2.91,6.56 -6.5,6.56 -3.59,0 -6.5,-2.94 -6.5,-6.56 0,-3.62 2.91,-6.56 6.5,-6.56 3.59,0 6.5,2.94 6.5,6.56z"/>
    <path class="fil8" d="M344.72 264.97c0,3.62 -2.91,6.56 -6.5,6.56 -3.59,0 -6.5,-2.94 -6.5,-6.56 0,-3.62 2.91,-6.56 6.5,-6.56 3.59,0 6.5,2.94 6.5,6.56z"/>
    <path class="fil8" d="M344.72 245.68c0,3.62 -2.91,6.56 -6.5,6.56 -3.59,0 -6.5,-2.94 -6.5,-6.56 0,-3.62 2.91,-6.56 6.5,-6.56 3.59,0 6.5,2.94 6.5,6.56z"/>
    <path class="fil8" d="M344.72 226.39c0,3.62 -2.91,6.56 -6.5,6.56 -3.59,0 -6.5,-2.94 -6.5,-6.56 0,-3.62 2.91,-6.56 6.5,-6.56 3.59,0 6.5,2.94 6.5,6.56z"/>
    <path class="fil8" d="M362.21 312.74c0,3.62 -2.91,6.56 -6.5,6.56 -3.59,0 -6.5,-2.94 -6.5,-6.56 0,-3.62 2.91,-6.56 6.5,-6.56 3.59,0 6.5,2.94 6.5,6.56z"/>
    <path class="fil8" d="M362.21 293.45c0,3.63 -2.91,6.56 -6.5,6.56 -3.59,0 -6.5,-2.94 -6.5,-6.56 0,-3.62 2.91,-6.56 6.5,-6.56 3.59,0 6.5,2.94 6.5,6.56z"/>
    <path class="fil8" d="M362.21 274.16c0,3.62 -2.91,6.56 -6.5,6.56 -3.59,0 -6.5,-2.94 -6.5,-6.56 0,-3.62 2.91,-6.56 6.5,-6.56 3.59,0 6.5,2.94 6.5,6.56z"/>
    <path class="fil8" d="M362.21 254.87c0,3.62 -2.91,6.56 -6.5,6.56 -3.59,0 -6.5,-2.94 -6.5,-6.56 0,-3.62 2.91,-6.56 6.5,-6.56 3.59,0 6.5,2.94 6.5,6.56z"/>
    <path class="fil8" d="M362.21 235.58c0,3.62 -2.91,6.56 -6.5,6.56 -3.59,0 -6.5,-2.94 -6.5,-6.56 0,-3.62 2.91,-6.56 6.5,-6.56 3.59,0 6.5,2.94 6.5,6.56z"/>
    <path class="fil8" d="M362.21 216.28c0,3.62 -2.91,6.56 -6.5,6.56 -3.59,0 -6.5,-2.94 -6.5,-6.56 0,-3.62 2.91,-6.56 6.5,-6.56 3.59,0 6.5,2.94 6.5,6.56z"/>
    <path class="fil8" d="M380.78 284.26c0,3.62 -2.91,6.56 -6.5,6.56 -3.59,0 -6.5,-2.94 -6.5,-6.56 0,-3.62 2.91,-6.56 6.5,-6.56 3.59,0 6.5,2.94 6.5,6.56z"/>
    <path class="fil8" d="M380.78 264.97c0,3.62 -2.91,6.56 -6.5,6.56 -3.59,0 -6.5,-2.94 -6.5,-6.56 0,-3.62 2.91,-6.56 6.5,-6.56 3.59,0 6.5,2.94 6.5,6.56z"/>
    <path class="fil8" d="M380.78 245.68c0,3.62 -2.91,6.56 -6.5,6.56 -3.59,0 -6.5,-2.94 -6.5,-6.56 0,-3.62 2.91,-6.56 6.5,-6.56 3.59,0 6.5,2.94 6.5,6.56z"/>
    <path class="fil8" d="M380.78 226.39c0,3.62 -2.91,6.56 -6.5,6.56 -3.59,0 -6.5,-2.94 -6.5,-6.56 0,-3.62 2.91,-6.56 6.5,-6.56 3.59,0 6.5,2.94 6.5,6.56z"/>
    <path class="fil8" d="M398.27 235.58c0,3.62 -2.91,6.56 -6.5,6.56 -3.59,0 -6.5,-2.94 -6.5,-6.56 0,-3.62 2.91,-6.56 6.5,-6.56 3.59,0 6.5,2.94 6.5,6.56z"/>
    <path class="fil8" d="M398.27 216.28c0,3.62 -2.91,6.56 -6.5,6.56 -3.59,0 -6.5,-2.94 -6.5,-6.56 0,-3.62 2.91,-6.56 6.5,-6.56 3.59,0 6.5,2.94 6.5,6.56z"/>
    <path class="fil8" d="M235.55 387.27c0,3.62 -2.91,6.56 -6.5,6.56 -3.59,0 -6.5,-2.94 -6.5,-6.56 0,-3.63 2.91,-6.56 6.5,-6.56 3.59,0 6.5,2.94 6.5,6.56z"/>
    <path class="fil8" d="M272.18 384.69c0,3.62 -2.91,6.56 -6.5,6.56 -3.59,0 -6.5,-2.94 -6.5,-6.56 0,-3.62 2.91,-6.56 6.5,-6.56 3.59,0 6.5,2.94 6.5,6.56z"/>
    <path class="fil8" d="M216.55 393.84c0,3.62 -2.91,6.56 -6.5,6.56 -3.59,0 -6.5,-2.94 -6.5,-6.56 0,-3.62 2.91,-6.56 6.5,-6.56 3.59,0 6.5,2.94 6.5,6.56z"/>
    <path class="fil8" d="M254.04 393.84c0,3.62 -2.91,6.56 -6.5,6.56 -3.59,0 -6.5,-2.94 -6.5,-6.56 0,-3.62 2.91,-6.56 6.5,-6.56 3.59,0 6.5,2.94 6.5,6.56z"/>
    <path class="fil0" d="M187.52 434.24c11.44,-1.82 12.13,-16 12.34,-25.07 120.67,-3.03 217.82,-93.29 217.82,-203.9 0,-54.69 -23.74,-106.32 -66.85,-145.38 -42.63,-38.63 -98.46,-59.9 -157.21,-59.9l-6.08 0.12 -0.03 12.78 0 6.87 0 18.1 0 11.44 0 18.01 0 125.82 0.01 241.09zm160.44 -97.84c-43.77,-30.44 -70.49,-77.77 -72.69,-128.59l130.13 0c-0.72,49.69 -22.42,94.85 -57.44,128.59zm-148.24 60.51l0 -189.1 61.01 0c2.16,54.54 30.06,105.37 76.05,138.62 -36.34,30.21 -84.3,49.13 -137.06,50.49zm0 -384.5c49.58,1.35 95.52,19.15 131.37,47.44 -43.05,33.54 -68.34,81.82 -70.37,134.33l-61 0 0 -181.76zm205.34 181.76l-129.82 0c2.06,-48.91 26.26,-93.84 67.23,-124.65 35.91,32.67 59.42,76.62 62.59,124.65z"/>
   </g>
  </g>
 </g>
</svg>
