<?xml version="1.0" encoding="UTF-8"?>
<!DOCTYPE svg PUBLIC "-//W3C//DTD SVG 1.1//EN" "http://www.w3.org/Graphics/SVG/1.1/DTD/svg11.dtd">
<!-- Creator: CorelDRAW -->
<svg xmlns="http://www.w3.org/2000/svg" xml:space="preserve" width="89.947mm" height="135.45mm" version="1.1" style="shape-rendering:geometricPrecision; text-rendering:geometricPrecision; image-rendering:optimizeQuality; fill-rule:evenodd; clip-rule:evenodd"
viewBox="0 0 1227.09 1847.85"
 xmlns:xlink="http://www.w3.org/1999/xlink"
 xmlns:xodm="http://www.corel.com/coreldraw/odm/2003">
 <defs>
  <style type="text/css">
   <![CDATA[
    .fil0 {fill:#E04D38}
   ]]>
  </style>
 </defs>
 <g id="Camada_x0020_1">
  <metadata id="CorelCorpID_0Corel-Layer"/>
  <path class="fil0" d="M317.6 101.05c13.67,7.23 30.58,21.65 57.95,35.88 8.79,4.57 24.05,10.59 32.75,14.17 37.85,15.59 70.36,24.37 112.91,31.46l88.83 8.86c33.86,1.78 133.57,-14.09 167.24,-24.08 75.68,-22.44 119.87,-59.39 132.21,-62.68 -70.59,302.99 -316.35,441.89 -498.59,209.87 -36.09,-45.94 -85.33,-151.35 -93.3,-213.48zm-158.8 -57.75c19.39,40.41 25.26,187.55 25.26,249.03 0,105.34 -24.73,195.08 -73.6,269.27 -11.51,17.47 -17.94,22.54 -31.97,36.61 -43.78,43.89 -78.5,49.42 -78.5,62.26l0 1187.39 1227.09 0 0 -1187.39c0,-16 -63.44,-27.7 -109.05,-96.67 -66.78,-100.99 -75.02,-192.11 -75.02,-321.98 0,-57.81 9.09,-132.42 20.53,-182.16 5.72,-24.86 11.14,-15.29 -54.33,-36.67l-81.69 -22.97c-8.93,38.35 -81.03,82.6 -114.23,98.71 -135.69,65.86 -345.45,48.62 -463.3,-40.89 -23.07,-17.52 -34.4,-33.85 -50.45,-57.82l-140.75 43.31z"/>
 </g>
</svg>
