<?xml version="1.0" encoding="UTF-8"?>
<!DOCTYPE svg PUBLIC "-//W3C//DTD SVG 1.1//EN" "http://www.w3.org/Graphics/SVG/1.1/DTD/svg11.dtd">
<!-- Creator: CorelDRAW -->
<svg xmlns="http://www.w3.org/2000/svg" xml:space="preserve" width="135.45mm" height="111.111mm" version="1.1" style="shape-rendering:geometricPrecision; text-rendering:geometricPrecision; image-rendering:optimizeQuality; fill-rule:evenodd; clip-rule:evenodd"
viewBox="0 0 1684.87 1382.12"
 xmlns:xlink="http://www.w3.org/1999/xlink"
 xmlns:xodm="http://www.corel.com/coreldraw/odm/2003">
 <defs>
  <style type="text/css">
   <![CDATA[
    .fil0 {fill:#E04D38}
   ]]>
  </style>
 </defs>
 <g id="Camada_x0020_1">
  <metadata id="CorelCorpID_0Corel-Layer"/>
  <g id="_2689385705424">
   <path class="fil0" d="M296.17 1296.56l0 85.56 454.12 0c50.94,0 43.98,-73.49 54.01,-123.69l41.42 -142.86c1.76,21.18 35.87,124.88 45.93,220.62 2.85,27.13 21.92,45.93 42.92,45.93l454.12 0c0,-223.14 -14.07,-390.51 -47.46,-607.4 -25.65,-166.65 -58.03,-323.97 -94.04,-478.55l-352.11 0c0,67.58 33.76,152.44 74.24,205.47 8.35,10.93 13.76,13.25 17.35,25.66 14.45,49.96 -41.84,83.34 -76.08,52.82 -19.02,-16.95 -59.54,-76.8 -64.87,-99.67l-6.58 0c-5.45,23.38 -44.83,80.61 -63.21,98.04 -34.84,33.05 -92.17,-1.8 -78.69,-48.84 4.31,-15.02 17.86,-26.04 32.03,-47.19 30.61,-45.69 60.51,-126.99 60.51,-186.3l-352.11 0c-66.89,287.11 -141.5,695.6 -141.5,1000.39z"/>
   <path class="fil0" d="M157.96 197.45l1368.96 0 -41.75 -165.57c-5.67,-15.02 -21.8,-31.88 -40.52,-31.88l-1204.42 0c-40.23,0 -47.52,55.01 -54.62,83.59 -6.81,27.4 -25.73,90.85 -27.65,113.86z"/>
   <path class="fil0" d="M-0 1283.4l0 55.94c0,20.18 22.6,42.78 42.78,42.78l157.96 0c0,-237.9 11.35,-386.65 47.46,-620.56 12.56,-81.36 25.8,-158.74 41.12,-235.31l35.82 -171.5c3.26,-13.93 9.32,-49.21 13.82,-58.58l-204.03 0c-18.38,38.31 -85.1,439.08 -89.42,470.01 -5.47,39.17 -11.39,80.35 -16.16,122.05 -6.49,56.75 -19.98,168.2 -22.76,224.04l-6.58 171.13z"/>
   <path class="fil0" d="M1484.13 1382.12l157.96 0c20.18,0 42.78,-22.6 42.78,-42.78l0 -1.88 0 -2 0 -2.11 0 -2.21c-0.01,-45.3 -0.23,-151.85 -4.68,-181.27l-5.16 -63.94c-6.59,-138.38 -50.41,-430.26 -75.41,-556.42 -7.89,-39.84 -15.68,-78.05 -23.62,-117.89l-26.05 -115.45 -204.03 0c18.68,38.93 94.66,485.85 98.91,516.47 6.08,43.92 11.01,87.4 17.27,134.1 2.66,19.86 4.21,45.09 7.48,68.2l14.55 219.09c-0.03,27.97 1.2,49.39 3.12,72.57 2.96,35.7 -2.68,55.72 -3.12,75.52z"/>
  </g>
 </g>
</svg>
