<?xml version="1.0" encoding="UTF-8"?>
<!DOCTYPE svg PUBLIC "-//W3C//DTD SVG 1.1//EN" "http://www.w3.org/Graphics/SVG/1.1/DTD/svg11.dtd">
<!-- Creator: CorelDRAW -->
<svg xmlns="http://www.w3.org/2000/svg" xml:space="preserve" width="126.486mm" height="126.495mm" version="1.1" style="shape-rendering:geometricPrecision; text-rendering:geometricPrecision; image-rendering:optimizeQuality; fill-rule:evenodd; clip-rule:evenodd"
viewBox="0 0 1973.35 1973.48"
 xmlns:xlink="http://www.w3.org/1999/xlink"
 xmlns:xodm="http://www.corel.com/coreldraw/odm/2003">
 <defs>
  <style type="text/css">
   <![CDATA[
    .fil0 {fill:#E04D38}
   ]]>
  </style>
 </defs>
 <g id="Camada_x0020_1">
  <metadata id="CorelCorpID_0Corel-Layer"/>
  <path class="fil0" d="M1296.47 82.91c0,95.88 7.67,153.53 -35.75,240.78 -22.07,44.36 -46.04,69.07 -86.36,95.24 -39.78,25.82 -75.11,41.94 -125.01,56.6 -91.22,26.79 -58.09,-15.21 -94.93,86.67l-93.07 266.01c-17.15,44.27 -32.81,90.96 -47.26,134.34 -20.34,61.07 -69.58,212.38 -98.24,260.84 -51.13,86.47 -130.72,109.76 -216.08,147.13 -47.4,20.75 -216.13,87.38 -244.44,114.64 -10.3,9.91 -14.79,11.9 -24.69,20.72l-171.17 146.63c-69.89,57.91 -70.14,174.96 -41.8,187.96 23.29,10.68 83.38,8.94 110.75,8.94 165.81,0 325.95,-128.42 440.41,-224.09 39.75,-33.23 124.49,-129.09 159.79,-174.52 35.04,-45.1 128.12,-133.01 168.43,-165.88 66.52,-54.25 147.59,-107.52 223.82,-151.76 32.44,-18.82 20.98,-26.63 49.36,-74.46 79,-133.15 170.7,-241.49 298.79,-328.56 60.37,-41.04 69.49,-44.11 132.85,-77.64 0,-61.83 31.92,-102.59 67.72,-130.39l85.63 -62.95c9.64,-7.08 19.02,-15.09 28.25,-21.28l-83.13 -127.37c-32.09,-42.5 -61.33,-78.26 -97.49,-117.13l-196.6 -178.99c-31.19,-22.86 -73.2,-17.96 -97.02,11.16 -21.85,26.7 -12.79,48.2 -12.79,57.38zm-685.14 425.11c17.22,-12.61 64.75,-90.8 173.35,-90.8 40.59,0 63.9,8.25 103.18,8.25 -21.51,-92.32 -91.59,-169.22 -202.24,-169.22 -19.76,0 -38.83,-2.93 -50.99,10.92 -9.43,10.73 -6.25,11.03 -8.83,28.32 -2.83,18.99 -4.71,51.9 -5.97,68.32 -3.74,48.81 -8.5,94.89 -8.5,144.21zm1056.59 152.71c0,27.37 15.19,56.84 24.13,79.05l58.31 139.8c9.9,22.39 18,49.27 29,70.06 66.81,-44.74 193.98,-175.87 193.98,-255.89 0,-32.64 -44.47,-46.45 -84.1,-89.25 -41.86,-45.2 -44.33,-51.05 -72.73,-104.74 -23.71,12.55 -116.08,81.44 -129.77,101.36 -11.58,16.85 -18.81,33.04 -18.81,59.61zm-1605.53 1258.83c16.22,60.74 86.68,53.66 127.95,53.66 118.04,0 244.99,-43.71 319.61,-89 90.87,-55.15 316.93,-227.43 418.59,-303.69 17.73,-13.3 111.36,-76.82 115.17,-91.2 1.27,-4.81 3.86,-40.49 4.38,-45.15 6.11,-54.67 8.6,-76.4 22.98,-133.86 7.24,-28.95 17.08,-53.89 23.16,-80.02 -33.81,17.89 -98.57,62.19 -128.52,86.1 -40.38,32.24 -77.37,64.06 -113.96,100.66 -58.16,58.16 -113.49,134.62 -150.61,171.32 -127.58,126.13 -264.91,257.49 -443.85,307.32 -67.37,18.76 -106.06,23.86 -194.89,23.86zm573.7 -1304.23c26.68,-2.22 119.69,-49.95 119.69,12.38 0,54.02 -138.74,45.07 -157.56,77.7 -0.73,1.26 -6.08,15.32 -7.01,17.76 -7.74,20.29 -16.37,42.78 -25.29,61.38 27.07,-2.25 140.33,-56.62 140.33,4.13 0,37.85 -39.81,40.11 -77.57,50.38 -31.7,8.62 -66.15,20.18 -99.9,28.04 -1.19,14.27 -9.48,30.17 -15.1,42.68 -6.89,15.33 -11.35,30.31 -17.92,43.99 22.74,-0.51 65.65,-15.71 89.01,-22.42 11.95,-3.43 71.95,-26.53 71.95,22.42 0,22.71 -14.82,32 -32.85,37.32 -17.81,5.25 -38.1,10.77 -54.72,15.44l-110.54 29.79c-2.06,24.71 -26.18,61.43 -33.02,90.8 11.55,-5.54 138.39,-41.27 152.71,-41.27 29,0 48.72,53.99 -1.54,68.63l-157.73 44.51c-42,11.41 -29.78,15.11 -56.77,75.31 -14.6,32.58 -25.15,65.68 -39.86,96.34 15.37,-1.28 227.15,-94.94 254.59,-108.61 90.57,-45.14 106.9,-132.01 139.1,-224.1l188.26 -542.27c-79.59,0 -166.74,-39.71 -234.15,50.64 -18.59,24.92 -21.07,41.84 -34.13,69.06zm726.41 400.35c0,-24.78 78.42,-77.28 78.42,90.8 0,15.94 -54.09,58.14 -68.52,-18.16 -4.86,-25.72 -9.9,-44.14 -9.9,-72.64zm169.22 -127.95c37.51,0 36.29,37.03 41.81,69.63 8.58,50.63 15.58,70.7 -37.69,70.7 -24.73,0 -27.05,-47.18 -31.26,-71.93 -5.39,-31.63 -11.78,-68.4 27.13,-68.4zm-416.86 553.06l530.04 -390.35c27.02,-19.43 50.38,-37.79 76.68,-55.4 -1.45,-17.45 -18.23,-49.47 -24.76,-66.04l-82.55 -202.24c-40.34,3.36 -145.64,87.51 -183.99,117.3 -29.11,22.61 -52.95,49.73 -77.01,75.7 -14.23,15.35 -21.49,22.24 -35.22,39.07 -44.11,54.1 -87.54,119.99 -117.94,183.35 -4.81,10.03 -6.96,17.09 -11.02,26.12 -29.88,66.41 -72.56,197.94 -74.22,272.47z"/>
 </g>
</svg>
